<svg width="1390" height="362" viewBox="0 0 1390 362" fill="none" xmlns="http://www.w3.org/2000/svg">
<g filter="url(#filter0_d)">
<path d="M20 125L57.5 116V245L20 237V125Z" fill="url(#paint0_linear)"/>
</g>
<path d="M530.532 155C523.065 150.6 515.065 147 506.532 144.2C498.132 141.4 491.065 140 485.332 140C480.799 140 477.199 140.867 474.532 142.6C471.999 144.2 470.732 146.6 470.732 149.8C470.732 152.867 471.865 155.467 474.132 157.6C476.399 159.6 479.199 161.267 482.532 162.6C485.865 163.8 490.799 165.4 497.332 167.4C507.065 170.2 515.065 173 521.332 175.8C527.732 178.6 533.199 182.933 537.732 188.8C542.265 194.533 544.532 202.067 544.532 211.4C544.532 220.733 542.065 228.733 537.132 235.4C532.199 241.933 525.399 246.867 516.732 250.2C508.199 253.533 498.665 255.2 488.132 255.2C476.532 255.2 464.932 253.2 453.332 249.2C441.865 245.067 431.932 239.467 423.532 232.4L437.732 203.8C444.799 210.067 453.132 215.2 462.732 219.2C472.465 223.2 481.065 225.2 488.532 225.2C493.999 225.2 498.265 224.2 501.332 222.2C504.532 220.2 506.132 217.267 506.132 213.4C506.132 210.2 504.932 207.533 502.532 205.4C500.265 203.267 497.332 201.6 493.732 200.4C490.265 199.067 485.332 197.533 478.932 195.8C469.332 193.133 461.399 190.467 455.132 187.8C448.865 185 443.465 180.867 438.932 175.4C434.532 169.8 432.332 162.4 432.332 153.2C432.332 144.533 434.599 136.933 439.132 130.4C443.799 123.867 450.332 118.867 458.732 115.4C467.265 111.8 477.132 110 488.332 110C498.465 110 508.465 111.467 518.332 114.4C528.199 117.2 536.865 121 544.332 125.8L530.532 155ZM563.229 144.8H598.629V253H563.229V144.8ZM580.629 95C586.096 95 590.562 96.8 594.029 100.4C597.629 103.867 599.429 108.4 599.429 114C599.429 119.467 597.629 124 594.029 127.6C590.562 131.2 586.096 133 580.629 133C575.162 133 570.629 131.2 567.029 127.6C563.562 124 561.829 119.467 561.829 114C561.829 108.4 563.562 103.867 567.029 100.4C570.629 96.8 575.162 95 580.629 95ZM697.324 143.4C709.191 143.4 718.658 147.133 725.724 154.6C732.924 162.067 736.524 172.133 736.524 184.8V253H701.124V195C701.124 188.867 699.458 184.067 696.124 180.6C692.791 177 688.324 175.2 682.724 175.2C676.858 175.333 671.991 177.267 668.124 181C664.391 184.733 662.191 189.667 661.524 195.8V253H625.924V144.8H661.524V162.4C665.391 156.133 670.324 151.4 676.324 148.2C682.458 145 689.458 143.4 697.324 143.4ZM831.09 247.4C827.09 249.667 822.49 251.467 817.29 252.8C812.09 254 806.823 254.6 801.49 254.6C790.823 254.6 782.157 251.533 775.49 245.4C768.957 239.267 765.69 230.8 765.69 220V173.6H750.69V150H765.69V120H801.09V150H829.09V173.6H801.09V214.4C801.09 222 804.223 225.8 810.49 225.8C814.357 225.8 818.957 224.6 824.29 222.2L831.09 247.4ZM897.609 143.6C909.342 143.6 919.675 145.933 928.609 150.6C937.542 155.133 944.475 161.6 949.409 170C954.342 178.267 956.809 187.867 956.809 198.8C956.809 209.867 954.342 219.6 949.409 228C944.475 236.267 937.542 242.733 928.609 247.4C919.675 251.933 909.342 254.2 897.609 254.2C885.875 254.2 875.542 251.933 866.609 247.4C857.675 242.733 850.742 236.267 845.809 228C841.009 219.6 838.609 209.867 838.609 198.8C838.609 187.867 841.009 178.267 845.809 170C850.742 161.6 857.675 155.133 866.609 150.6C875.542 145.933 885.875 143.6 897.609 143.6ZM897.609 172.4C890.675 172.4 885.075 174.867 880.809 179.8C876.542 184.733 874.409 191.2 874.409 199.2C874.409 207.333 876.542 213.867 880.809 218.8C885.075 223.733 890.675 226.2 897.609 226.2C904.675 226.2 910.342 223.733 914.609 218.8C918.875 213.867 921.009 207.333 921.009 199.2C921.009 191.2 918.809 184.733 914.409 179.8C910.142 174.867 904.542 172.4 897.609 172.4ZM1046.35 143.4C1058.21 143.4 1067.68 147.133 1074.75 154.6C1081.95 162.067 1085.55 172.133 1085.55 184.8V253H1050.15V195C1050.15 188.867 1048.48 184.067 1045.15 180.6C1041.81 177 1037.35 175.2 1031.75 175.2C1025.88 175.333 1021.01 177.267 1017.15 181C1013.41 184.733 1011.21 189.667 1010.55 195.8V253H974.948V144.8H1010.55V162.4C1014.41 156.133 1019.35 151.4 1025.35 148.2C1031.48 145 1038.48 143.4 1046.35 143.4ZM1109.71 144.8H1145.11V253H1109.71V144.8ZM1127.11 95C1132.58 95 1137.05 96.8 1140.51 100.4C1144.11 103.867 1145.91 108.4 1145.91 114C1145.91 119.467 1144.11 124 1140.51 127.6C1137.05 131.2 1132.58 133 1127.11 133C1121.65 133 1117.11 131.2 1113.51 127.6C1110.05 124 1108.31 119.467 1108.31 114C1108.31 108.4 1110.05 103.867 1113.51 100.4C1117.11 96.8 1121.65 95 1127.11 95ZM1167.41 144.8L1262.21 145V166.6L1210.21 225.8H1264.21V253H1165.61V231.4L1217.61 172.2H1167.41V144.8ZM1330.36 143.6C1347.96 143.6 1361.49 148.8 1370.96 159.2C1380.43 169.6 1385.16 183.867 1385.16 202C1385.16 204.8 1385.09 206.933 1384.96 208.4H1309.76C1311.49 214.533 1314.49 219.267 1318.76 222.6C1323.03 225.8 1328.23 227.4 1334.36 227.4C1339.03 227.4 1343.49 226.467 1347.76 224.6C1352.16 222.733 1356.16 220 1359.76 216.4L1378.36 235C1372.76 241.267 1365.96 246.067 1357.96 249.4C1350.09 252.6 1341.16 254.2 1331.16 254.2C1319.56 254.2 1309.43 251.933 1300.76 247.4C1292.09 242.867 1285.43 236.467 1280.76 228.2C1276.23 219.933 1273.96 210.333 1273.96 199.4C1273.96 188.333 1276.29 178.6 1280.96 170.2C1285.63 161.667 1292.23 155.133 1300.76 150.6C1309.29 145.933 1319.16 143.6 1330.36 143.6ZM1350.56 189.4C1350.56 183.133 1348.69 178.133 1344.96 174.4C1341.36 170.533 1336.56 168.6 1330.56 168.6C1324.96 168.6 1320.23 170.467 1316.36 174.2C1312.63 177.933 1310.16 183 1308.96 189.4H1350.56Z" fill="url(#paint1_linear)"/>
<g filter="url(#filter1_d)">
<rect x="45" y="30" width="302" height="302" rx="50" fill="url(#paint2_linear)"/>
</g>
<rect x="282" y="285" width="10" height="198" rx="2" transform="rotate(90 282 285)" fill="white" fill-opacity="0.9"/>
<rect x="282" y="67" width="10" height="198" rx="2" transform="rotate(90 282 67)" fill="white" fill-opacity="0.9"/>
<rect x="221" y="118" width="10" height="137" rx="2" transform="rotate(90 221 118)" fill="white" fill-opacity="0.9"/>
<rect x="221" y="234" width="10" height="137" rx="2" transform="rotate(90 221 234)" fill="white" fill-opacity="0.9"/>
<rect x="304" y="171" width="20" height="193" rx="5" transform="rotate(90 304 171)" fill="white"/>
<path d="M78.6655 178.811L22.0518 125.736C20.1358 123.94 17 125.298 17 127.925L17 234.075C17 236.702 20.1358 238.06 22.0518 236.264L78.6655 183.189C79.9297 182.003 79.9297 179.997 78.6655 178.811Z" fill="white"/>
<defs>
<filter id="filter0_d" x="0" y="100" width="77.5" height="169" filterUnits="userSpaceOnUse" color-interpolation-filters="sRGB">
<feFlood flood-opacity="0" result="BackgroundImageFix"/>
<feColorMatrix in="SourceAlpha" type="matrix" values="0 0 0 0 0 0 0 0 0 0 0 0 0 0 0 0 0 0 127 0"/>
<feOffset dy="4"/>
<feGaussianBlur stdDeviation="10"/>
<feColorMatrix type="matrix" values="0 0 0 0 0 0 0 0 0 0 0 0 0 0 0 0 0 0 0.25 0"/>
<feBlend mode="normal" in2="BackgroundImageFix" result="effect1_dropShadow"/>
<feBlend mode="normal" in="SourceGraphic" in2="effect1_dropShadow" result="shape"/>
</filter>
<filter id="filter1_d" x="15" y="0" width="362" height="362" filterUnits="userSpaceOnUse" color-interpolation-filters="sRGB">
<feFlood flood-opacity="0" result="BackgroundImageFix"/>
<feColorMatrix in="SourceAlpha" type="matrix" values="0 0 0 0 0 0 0 0 0 0 0 0 0 0 0 0 0 0 127 0"/>
<feOffset/>
<feGaussianBlur stdDeviation="15"/>
<feColorMatrix type="matrix" values="0 0 0 0 0 0 0 0 0 0 0 0 0 0 0 0 0 0 0.25 0"/>
<feBlend mode="normal" in2="BackgroundImageFix" result="effect1_dropShadow"/>
<feBlend mode="normal" in="SourceGraphic" in2="effect1_dropShadow" result="shape"/>
</filter>
<linearGradient id="paint0_linear" x1="49.5" y1="171.5" x2="14.5" y2="171.5" gradientUnits="userSpaceOnUse">
<stop stop-color="#BEBEBE"/>
<stop offset="1" stop-color="#959595"/>
</linearGradient>
<linearGradient id="paint1_linear" x1="905" y1="59" x2="905" y2="303" gradientUnits="userSpaceOnUse">
<stop/>
<stop offset="1" stop-color="#772FFB"/>
</linearGradient>
<linearGradient id="paint2_linear" x1="196" y1="30" x2="264" y2="388" gradientUnits="userSpaceOnUse">
<stop/>
<stop offset="1" stop-color="#8E00FD"/>
</linearGradient>
</defs>
</svg>
